<?xml version="1.0" encoding="UTF-8"?>
<svg width="143px" height="20px" viewBox="0 0 143 20" version="1.1" xmlns="http://www.w3.org/2000/svg" xmlns:xlink="http://www.w3.org/1999/xlink">
    <!-- Generator: Sketch 52.3 (67297) - http://www.bohemiancoding.com/sketch -->
    <title>TicketEASY</title>
    <desc>Created with Sketch.</desc>
    <g id="Page-1" stroke="none" stroke-width="1" fill="none" fill-rule="evenodd">
        <path d="M8.47249999,5.2 L8.47249999,19 L4.87249999,19 L4.87249999,5.2 L0.04849999,5.2 L0.04849999,2.248 L13.2965,2.248 L13.2965,5.2 L8.47249999,5.2 Z M21.846,5.032 C21.045996,5.032 20.4900016,4.86800164 20.178,4.54 C19.8659984,4.21199836 19.71,3.81600232 19.71,3.352 L19.71,2.656 C19.71,2.1759976 19.8659984,1.7760016 20.178,1.456 C20.4900016,1.1359984 21.045996,0.976 21.846,0.976 C22.646004,0.976 23.2019984,1.1359984 23.514,1.456 C23.8260016,1.7760016 23.982,2.1759976 23.982,2.656 L23.982,3.352 C23.982,3.81600232 23.8260016,4.21199836 23.514,4.54 C23.2019984,4.86800164 22.646004,5.032 21.846,5.032 Z M16.134,16.24 L20.07,16.24 L20.07,9.376 L16.134,9.376 L16.134,6.616 L23.622,6.616 L23.622,16.24 L27.27,16.24 L27.27,19 L16.134,19 L16.134,16.24 Z M35.9875,19.288 C35.0114951,19.288 34.1355039,19.1400015 33.3595,18.844 C32.5834961,18.5479985 31.9275027,18.1200028 31.3915,17.56 C30.8554973,16.9999972 30.4435014,16.320004 30.1555,15.52 C29.8674986,14.719996 29.7235,13.816005 29.7235,12.808 C29.7235,11.799995 29.8674986,10.896004 30.1555,10.096 C30.4435014,9.295996 30.8554973,8.6160028 31.3915,8.056 C31.9275027,7.4959972 32.5834961,7.06800148 33.3595,6.772 C34.1355039,6.47599852 35.0034952,6.328 35.9635,6.328 C37.3235068,6.328 38.4154959,6.60399724 39.2395,7.156 C40.0635041,7.70800276 40.6914978,8.43999544 41.1235,9.352 L38.3875,10.84 C38.1634989,10.3599976 37.8715018,9.9600016 37.5115,9.64 C37.1514982,9.3199984 36.6355034,9.16 35.9635,9.16 C35.1474959,9.16 34.5195022,9.39599764 34.0795,9.868 C33.6394978,10.3400024 33.4195,10.9839959 33.4195,11.8 L33.4195,13.816 C33.4195,14.6320041 33.6394978,15.2759976 34.0795,15.748 C34.5195022,16.2200024 35.1634958,16.456 36.0115,16.456 C36.6995034,16.456 37.239498,16.2960016 37.6315,15.976 C38.023502,15.6559984 38.3554986,15.2400026 38.6275,14.728 L41.3155,16.264 C40.8674978,17.1760046 40.2155043,17.9079972 39.3595,18.46 C38.5034957,19.0120028 37.379507,19.288 35.9875,19.288 Z M44.249,1.24 L47.801,1.24 L47.801,11.32 L47.969,11.32 L49.625,9.376 L52.217,6.616 L56.297,6.616 L51.497,11.512 L56.801,19 L52.577,19 L48.977,13.528 L47.801,14.704 L47.801,19 L44.249,19 L44.249,1.24 Z M64.6305,19.288 C62.5504896,19.288 60.9745054,18.7120058 59.9025,17.56 C58.8304946,16.4079942 58.2945,14.8400099 58.2945,12.856 C58.2945,11.847995 58.4344986,10.940004 58.7145,10.132 C58.9945014,9.32399596 59.3944974,8.63600284 59.9145,8.068 C60.4345026,7.49999716 61.0664963,7.06800148 61.8105,6.772 C62.5545037,6.47599852 63.3904954,6.328 64.3185,6.328 C65.2465046,6.328 66.0784963,6.47599852 66.8145,6.772 C67.5505037,7.06800148 68.1744974,7.48799728 68.6865,8.032 C69.1985026,8.57600272 69.5944986,9.23599612 69.8745,10.012 C70.1545014,10.7880039 70.2945,11.6559952 70.2945,12.616 L70.2945,13.672 L61.8225,13.672 L61.8225,13.888 C61.8225,14.688004 62.0704975,15.3319976 62.5665,15.82 C63.0625025,16.3080024 63.7904952,16.552 64.7505,16.552 C65.4865037,16.552 66.1184974,16.4120014 66.6465,16.132 C67.1745026,15.8519986 67.6304981,15.4800023 68.0145,15.016 L69.9345,17.104 C69.4544976,17.696003 68.7825043,18.2079978 67.9185,18.64 C67.0544957,19.0720022 65.9585066,19.288 64.6305,19.288 Z M64.3425,8.872 C63.5744962,8.872 62.9625023,9.10799764 62.5065,9.58 C62.0504977,10.0520024 61.8225,10.687996 61.8225,11.488 L61.8225,11.68 L66.8145,11.68 L66.8145,11.488 C66.8145,10.6719959 66.5945022,10.0320023 66.1545,9.568 C65.7144978,9.10399768 65.1105038,8.872 64.3425,8.872 Z M79.66,19 C78.3799936,19 77.4280031,18.6640034 76.804,17.992 C76.1799969,17.3199966 75.868,16.4640052 75.868,15.424 L75.868,9.376 L72.508,9.376 L72.508,6.616 L74.692,6.616 C75.2200026,6.616 75.5959989,6.51200104 75.82,6.304 C76.0440011,6.09599896 76.156,5.7120028 76.156,5.152 L76.156,2.248 L79.42,2.248 L79.42,6.616 L84.244,6.616 L84.244,9.376 L79.42,9.376 L79.42,16.24 L84.244,16.24 L84.244,19 L79.66,19 Z M88.4015,19 L88.4015,2.248 L98.2655,2.248 L98.2655,3.04 L89.2655,3.04 L89.2655,10.096 L97.9535,10.096 L97.9535,10.888 L89.2655,10.888 L89.2655,18.208 L98.2655,18.208 L98.2655,19 L88.4015,19 Z M112.671,19 L110.895,13.576 L104.127,13.576 L102.351,19 L101.439,19 L106.935,2.248 L108.111,2.248 L113.583,19 L112.671,19 Z M107.559,3.208 L107.439,3.208 L104.343,12.808 L110.679,12.808 L107.559,3.208 Z M121.9885,19.288 C121.236496,19.288 120.568503,19.2200007 119.9845,19.084 C119.400497,18.9479993 118.876502,18.7560012 118.4125,18.508 C117.948498,18.2599988 117.536502,17.9640017 117.1765,17.62 C116.816498,17.2759983 116.484502,16.904002 116.1805,16.504 L116.8525,15.976 C117.444503,16.7600039 118.128496,17.3799977 118.9045,17.836 C119.680504,18.2920023 120.708494,18.52 121.9885,18.52 C123.444507,18.52 124.572496,18.1920033 125.3725,17.536 C126.172504,16.8799967 126.5725,15.9280062 126.5725,14.68 C126.5725,14.0559969 126.476501,13.5280022 126.2845,13.096 C126.092499,12.6639978 125.828502,12.3040014 125.4925,12.016 C125.156498,11.7279986 124.760502,11.5040008 124.3045,11.344 C123.848498,11.1839992 123.356503,11.0640004 122.8285,10.984 L120.9085,10.672 C120.060496,10.5279993 119.360503,10.3120014 118.8085,10.024 C118.256497,9.73599856 117.820502,9.40000192 117.5005,9.016 C117.180498,8.63199808 116.952501,8.20400236 116.8165,7.732 C116.680499,7.25999764 116.6125,6.77600248 116.6125,6.28 C116.6125,4.82399272 117.092495,3.74000356 118.0525,3.028 C119.012505,2.31599644 120.300492,1.96 121.9165,1.96 C123.276507,1.96 124.376496,2.17599784 125.2165,2.608 C126.056504,3.04000216 126.724498,3.6159964 127.2205,4.336 L126.5725,4.888 C126.076498,4.18399648 125.460504,3.64800184 124.7245,3.28 C123.988496,2.91199816 123.036506,2.728 121.8685,2.728 C120.492493,2.728 119.420504,3.01999708 118.6525,3.604 C117.884496,4.18800292 117.5005,5.07199408 117.5005,6.256 C117.5005,6.84800296 117.592499,7.35199792 117.7765,7.768 C117.960501,8.18400208 118.216498,8.5319986 118.5445,8.812 C118.872502,9.0920014 119.260498,9.31599916 119.7085,9.484 C120.156502,9.65200084 120.652497,9.7759996 121.1965,9.856 L123.0925,10.168 C123.956504,10.3120007 124.668497,10.5319985 125.2285,10.828 C125.788503,11.1240015 126.236498,11.471998 126.5725,11.872 C126.908502,12.272002 127.140499,12.7119976 127.2685,13.192 C127.396501,13.6720024 127.4605,14.1599975 127.4605,14.656 C127.4605,16.1760076 126.972505,17.3279961 125.9965,18.112 C125.020495,18.8960039 123.684508,19.288 121.9885,19.288 Z M135.89,19 L135.89,12.064 L129.722,2.248 L130.73,2.248 L136.298,11.152 L136.37,11.152 L141.938,2.248 L142.922,2.248 L136.754,12.064 L136.754,19 L135.89,19 Z" id="TicketEASY" fill="#35376E"></path>
    </g>
</svg>